<?xml version="1.0" encoding="UTF-8" standalone="no"?>
<!-- Created with Inkscape (http://www.inkscape.org/) -->

<svg
   width="63.500019mm"
   height="63.499996mm"
   viewBox="0 0 63.500019 63.499996"
   version="1.1"
   id="svg1463"
   inkscape:version="1.1.2 (0a00cf5339, 2022-02-04, custom)"
   sodipodi:docname="azad.square.logo.svg"
   xmlns:inkscape="http://www.inkscape.org/namespaces/inkscape"
   xmlns:sodipodi="http://sodipodi.sourceforge.net/DTD/sodipodi-0.dtd"
   xmlns="http://www.w3.org/2000/svg"
   xmlns:svg="http://www.w3.org/2000/svg">
  <sodipodi:namedview
     id="namedview1465"
     pagecolor="#ffffff"
     bordercolor="#666666"
     borderopacity="1.0"
     inkscape:pageshadow="2"
     inkscape:pageopacity="0.0"
     inkscape:pagecheckerboard="0"
     inkscape:document-units="mm"
     showgrid="false"
     fit-margin-top="0"
     fit-margin-left="0"
     fit-margin-right="0"
     fit-margin-bottom="0"
     inkscape:zoom="0.51843089"
     inkscape:cx="8.6800383"
     inkscape:cy="-77.155896"
     inkscape:window-width="1920"
     inkscape:window-height="1009"
     inkscape:window-x="-8"
     inkscape:window-y="-8"
     inkscape:window-maximized="1"
     inkscape:current-layer="layer1" />
  <defs
     id="defs1460" />
  <g
     inkscape:label="Layer 1"
     inkscape:groupmode="layer"
     id="layer1"
     transform="translate(-166.43449,-168.03403)">
    <path
       style="color:#000000;font-style:normal;font-variant:normal;font-weight:normal;font-stretch:normal;font-size:medium;line-height:normal;font-family:Sans;-inkscape-font-specification:Sans;text-indent:0;text-align:start;text-decoration:none;text-decoration-line:none;letter-spacing:normal;word-spacing:normal;text-transform:none;writing-mode:lr-tb;direction:ltr;baseline-shift:baseline;text-anchor:start;display:inline;overflow:visible;visibility:visible;fill:#99cc33;fill-opacity:1;fill-rule:nonzero;stroke:#333333;stroke-width:0;stroke-miterlimit:4;stroke-dasharray:none;stroke-opacity:1;marker:none;enable-background:accumulate"
       d="m 170.44724,168.04958 c -2.14598,0.21052 -3.9686,2.46517 -3.96055,4.8713 l -0.0522,53.74185 c 2.2e-4,2.54155 2.0891,4.87109 4.36463,4.8713 L 225.6,231.45651 c 1.75271,0 3.4478,-1.28575 4.06834,-3.11658 0.62016,-1.83082 0.12895,-4.07373 -1.18547,-5.36901 l -19.72188,-19.32881 c -0.84758,0.59743 -1.75405,1.12352 -2.7481,1.57145 -1.94017,0.87423 -4.13945,1.3095 -6.54698,1.3095 h -7.40924 v 13.12119 c 0,1.00631 -0.36897,1.8713 -1.10459,2.59276 -0.7357,0.72154 -1.61414,1.0738 -2.64032,1.0738 h -5.49628 c -1.02483,0 -1.90409,-0.35205 -2.64039,-1.0738 -0.73644,-0.72161 -1.10459,-1.58645 -1.10459,-2.59276 v -40.14926 c 0,-1.00631 0.36822,-1.87144 1.10459,-2.59283 0.23107,-0.22617 0.49568,-0.39473 0.75441,-0.54977 l -7.22051,-7.07133 c -0.87889,-0.87509 -2.08687,-1.342 -3.26004,-1.23084 z m 10.48054,8.30217 11.88166,11.65458 h 6.06202 c 0.84654,7e-5 1.58008,0.29942 2.18228,0.89045 0.60227,0.59102 0.8891,1.32571 0.88917,2.19995 -7e-5,0.91826 -0.32349,1.69697 -0.96997,2.33089 -0.53146,0.52132 -1.09065,0.8238 -1.6974,0.91669 l 9.48374,9.29745 c 0.80666,-0.56827 1.53535,-1.20801 2.20933,-1.91191 1.38203,-1.44349 2.47424,-3.09125 3.23305,-4.94989 0.75873,-1.85857 1.13158,-3.75845 1.13158,-5.68323 0,-1.83652 -0.3727,-3.65853 -1.13158,-5.47378 -0.75881,-1.81504 -1.85102,-3.4581 -3.23305,-4.92372 -1.38218,-1.46547 -3.01734,-2.63927 -4.95744,-3.53562 -1.94009,-0.89621 -4.13944,-1.33561 -6.54697,-1.33568 h -16.65043 c -0.70365,0 -1.31837,0.1835 -1.88599,0.52417 z m 18.34776,17.99256 -6.4661,-6.33798 h -0.75441 v 6.36415 h 6.81643 c 0.13492,0 0.27282,-0.006 0.40401,-0.0284 z"
       id="path3834-4"
       inkscape:connector-curvature="0" />
  </g>
</svg>
