<?xml version="1.0" encoding="UTF-8" standalone="no"?>
<!-- Created with Inkscape (http://www.inkscape.org/) -->

<svg
   width="126.47083mm"
   height="15.241879mm"
   viewBox="0 0 126.47083 15.24188"
   version="1.1"
   id="svg939"
   inkscape:version="1.2 (dc2aedaf03, 2022-05-15)"
   sodipodi:docname="logo-wide.svg"
   inkscape:export-filename="G:\Pictures\LOGOS\pqs\azad.banner.logo.png"
   inkscape:export-xdpi="119.48459"
   inkscape:export-ydpi="119.48459"
   xmlns:inkscape="http://www.inkscape.org/namespaces/inkscape"
   xmlns:sodipodi="http://sodipodi.sourceforge.net/DTD/sodipodi-0.dtd"
   xmlns="http://www.w3.org/2000/svg"
   xmlns:svg="http://www.w3.org/2000/svg">
  <sodipodi:namedview
     id="namedview941"
     pagecolor="#ffffff"
     bordercolor="#666666"
     borderopacity="1.0"
     inkscape:pageshadow="2"
     inkscape:pageopacity="0.0"
     inkscape:pagecheckerboard="0"
     inkscape:document-units="mm"
     showgrid="false"
     fit-margin-top="0"
     fit-margin-left="0"
     fit-margin-right="0"
     fit-margin-bottom="0"
     inkscape:zoom="4.1524866"
     inkscape:cx="215.53351"
     inkscape:cy="9.3919629"
     inkscape:window-width="1920"
     inkscape:window-height="1009"
     inkscape:window-x="1912"
     inkscape:window-y="-8"
     inkscape:window-maximized="1"
     inkscape:current-layer="layer1"
     inkscape:showpageshadow="2"
     inkscape:deskcolor="#d1d1d1" />
  <defs
     id="defs936" />
  <g
     inkscape:label="Layer 1"
     inkscape:groupmode="layer"
     id="layer1"
     transform="translate(9.7273633,-325.76719)">
    <g
       id="g232"
       transform="matrix(1.707143,0,0,1.707143,6.8786365,-230.36398)">
      <path
         style="color:#000000;font-style:normal;font-variant:normal;font-weight:normal;font-stretch:normal;font-size:medium;line-height:normal;font-family:Sans;-inkscape-font-specification:Sans;text-indent:0;text-align:start;text-decoration:none;text-decoration-line:none;letter-spacing:normal;word-spacing:normal;text-transform:none;writing-mode:lr-tb;direction:ltr;baseline-shift:baseline;text-anchor:start;display:inline;overflow:visible;visibility:visible;fill:#99cc33;fill-opacity:1;fill-rule:nonzero;stroke:#333333;stroke-width:0;stroke-miterlimit:4;stroke-dasharray:none;stroke-opacity:1;marker:none;enable-background:accumulate"
         d="m -9.1887934,325.76937 c -0.2878962,0.0296 -0.532421,0.34661 -0.5313392,0.68492 l -0.00723,7.55627 c 3.03e-5,0.35735 0.2802722,0.68489 0.5855552,0.68492 l 7.3519792,-0.0109 c 0.2351349,0 0.4625461,-0.18078 0.5457969,-0.4382 0.083247,-0.25742 0.017267,-0.57278 -0.1590414,-0.7549 l -2.6458431,-2.71769 c -0.1137094,0.084 -0.2353266,0.15797 -0.3686846,0.22095 -0.2602852,0.12292 -0.5553389,0.18412 -0.8783341,0.18412 h -0.9940011 v 1.84488 c -7e-7,0.14149 -0.049508,0.26311 -0.1481948,0.36455 -0.098692,0.10145 -0.2165544,0.15098 -0.3542238,0.15098 h -0.7373676 c -0.1374909,0 -0.2554459,-0.0495 -0.354224,-0.15098 -0.098781,-0.10146 -0.148197,-0.22306 -0.148197,-0.36455 v -5.64511 c 0,-0.14149 0.049416,-0.26313 0.148197,-0.36456 0.030956,-0.0318 0.066447,-0.0555 0.1012055,-0.0773 l -0.9686936,-0.99425 c -0.1179109,-0.12304 -0.2799635,-0.18869 -0.4373588,-0.17306 z m 1.4060557,1.16731 1.5940131,1.63867 h 0.8132727 c 0.1135672,10e-6 0.2119797,0.0421 0.2927763,0.1252 0.080795,0.0831 0.1192789,0.1864 0.1192813,0.30932 -2.4e-6,0.12911 -0.043398,0.2386 -0.1301227,0.32773 -0.071287,0.0733 -0.1463201,0.11583 -0.2277183,0.12889 l 1.2723201,1.30725 c 0.1082151,-0.0799 0.2059771,-0.16985 0.2963921,-0.26882 0.1854151,-0.20296 0.3319479,-0.43464 0.4337459,-0.69597 0.1017886,-0.26132 0.1518048,-0.52845 0.1518103,-0.79908 -5.5e-6,-0.25822 -0.050022,-0.5144 -0.1518103,-0.76963 -0.101798,-0.2552 -0.2483308,-0.48622 -0.4337459,-0.69229 -0.1854225,-0.20605 -0.4047998,-0.37109 -0.6650751,-0.49712 -0.2602858,-0.12601 -0.5553395,-0.18779 -0.8783347,-0.1878 h -2.233786 c -0.094403,0 -0.1768672,0.0258 -0.2530188,0.0737 z m 2.4615024,2.52981 -0.8674893,-0.89114 h -0.1012075 v 0.89482 h 0.9144806 c 0.018113,0 0.036581,-8.2e-4 0.054216,-0.004 z"
         id="path3834-4"
         inkscape:connector-curvature="0" />
      <path
         inkscape:connector-curvature="0"
         id="path3764"
         style="font-style:normal;font-variant:normal;font-weight:normal;font-stretch:normal;font-size:28px;line-height:125%;font-family:'Varela Round';-inkscape-font-specification:'Varela Round';letter-spacing:0px;word-spacing:0px;fill:#99cc33;fill-opacity:1;stroke:#99cc33;stroke-width:0.0324283;stroke-miterlimit:4;stroke-dasharray:none;stroke-opacity:1"
         d="m 1.2291367,328.18987 c 0.4168302,0 0.7302082,0.10997 0.9401376,0.32989 0.1738675,0.17723 0.2608028,0.40633 0.2608056,0.68732 -2.8e-6,0.28109 -0.086938,0.51025 -0.2608056,0.68747 -0.2099294,0.21993 -0.5233074,0.32989 -0.9401376,0.32989 H 0.41048085 v 0.98058 c 0,0.0581 -0.0202245,0.10699 -0.0606707,0.14669 -0.0404491,0.0397 -0.0891783,0.0596 -0.14618971,0.0596 -0.0570114,0 -0.10500895,-0.0198 -0.14399082,-0.0596 -0.03898577,-0.0397 -0.05847664,-0.0885 -0.05847468,-0.14669 v -2.80441 c -1.92e-6,-0.058 0.01948901,-0.10761 0.05847468,-0.14887 0.03898184,-0.0413 0.08697948,-0.0619 0.14399082,-0.0619 z m -0.040492,1.6405 c 0.3088456,0 0.5322693,-0.0672 0.6702702,-0.20167 0.1078894,-0.10384 0.1618337,-0.24439 0.1618375,-0.42162 -3.8e-6,-0.28406 -0.1394189,-0.47345 -0.4182513,-0.56818 C 1.4945174,328.6023 1.3565656,328.584 1.1886447,328.584 H 0.41048085 v 1.24643 z" />
      <path
         inkscape:connector-curvature="0"
         id="path3766"
         style="font-style:normal;font-variant:normal;font-weight:normal;font-stretch:normal;font-size:28px;line-height:125%;font-family:'Varela Round';-inkscape-font-specification:'Varela Round';letter-spacing:0px;word-spacing:0px;fill:#737373;fill-opacity:1;stroke:#737373;stroke-width:0.0324283;stroke-miterlimit:4;stroke-dasharray:none;stroke-opacity:1"
         d="m 3.018952,329.17044 c 0.2519284,-0.10991 0.5128244,-0.16486 0.782692,-0.16486 0.3058275,0 0.5427031,0.0946 0.7106279,0.28401 0.1499836,0.16502 0.2249773,0.37123 0.2249784,0.61867 v 1.29676 c -1.1e-6,0.0581 -0.020249,0.10699 -0.060739,0.14669 -0.040496,0.0397 -0.08925,0.0596 -0.146258,0.0596 -0.056922,0 -0.1048734,-0.0198 -0.1438553,-0.0596 -0.038985,-0.0397 -0.058478,-0.0885 -0.058477,-0.14669 v -0.11915 c -0.080988,0.0856 -0.1897019,0.16505 -0.3261433,0.23837 -0.1364433,0.0733 -0.3096282,0.10999 -0.5195519,0.10999 -0.2069066,0 -0.3793137,-0.0611 -0.5172203,-0.18335 -0.1439466,-0.12827 -0.2159204,-0.29632 -0.2159185,-0.50412 -1.9e-6,-0.22599 0.08396,-0.40317 0.2518823,-0.53154 0.1829304,-0.1405 0.4438264,-0.21075 0.782692,-0.21075 H 4.327921 v -0.0366 c -9e-7,-0.20473 -0.049485,-0.35061 -0.148453,-0.43764 -0.09897,-0.087 -0.2503968,-0.13054 -0.4542814,-0.13054 -0.1739628,0 -0.3733651,0.0366 -0.5982069,0.10992 -0.023977,0.006 -0.050971,0.009 -0.080988,0.009 -0.030015,0 -0.061518,-0.016 -0.094507,-0.0481 -0.03299,-0.0321 -0.049485,-0.0817 -0.049485,-0.14894 0,-0.0672 0.038983,-0.11765 0.1169514,-0.15131 z m 0.1394623,1.53058 c 0,0.24436 0.158907,0.36653 0.4767251,0.36653 0.1410169,0 0.2722442,-0.0351 0.3936799,-0.10536 0.1214338,-0.0703 0.2211344,-0.14966 0.299102,-0.23823 v -0.38499 H 3.8376078 c -0.2128552,0 -0.3792685,0.0276 -0.4992379,0.0825 -0.1199704,0.055 -0.1799556,0.14819 -0.1799556,0.27954 z" />
      <path
         inkscape:connector-curvature="0"
         id="path3768"
         style="font-style:normal;font-variant:normal;font-weight:normal;font-stretch:normal;font-size:28px;line-height:125%;font-family:'Varela Round';-inkscape-font-specification:'Varela Round';letter-spacing:0px;word-spacing:0px;fill:#737373;fill-opacity:1;stroke:#737373;stroke-width:0.0324283;stroke-miterlimit:4;stroke-dasharray:none;stroke-opacity:1"
         d="m 6.5755208,329.39041 c -0.2639189,0 -0.5098084,0.14665 -0.7376692,0.43996 v 1.37465 c -1.9e-6,0.0581 -0.020248,0.10699 -0.06074,0.14669 -0.040494,0.0397 -0.089248,0.0596 -0.146258,0.0596 -0.05692,0 -0.1048714,-0.0198 -0.1438543,-0.0596 -0.038984,-0.0397 -0.058476,-0.0885 -0.058476,-0.14669 v -1.96578 c 0,-0.0612 0.019491,-0.11159 0.058476,-0.1513 0.038982,-0.0397 0.086935,-0.0596 0.1438543,-0.0596 0.05701,0 0.1057637,0.0198 0.146258,0.0596 0.040492,0.0397 0.060738,0.0902 0.06074,0.1513 v 0.18781 c 0.1198781,-0.12828 0.2233314,-0.21838 0.3103599,-0.27031 0.1708485,-0.10074 0.3334861,-0.15116 0.4879127,-0.15116 0.1544209,0 0.2811197,0.0236 0.3800895,0.071 0.098966,0.0473 0.1829507,0.11222 0.2519525,0.19473 0.1409229,0.168 0.2113871,0.37879 0.21139,0.63238 v 1.30137 c -2.9e-6,0.0581 -0.020251,0.10699 -0.060741,0.14669 -0.040496,0.0397 -0.089202,0.0596 -0.1461195,0.0596 -0.057014,0 -0.1050098,-0.0198 -0.1439936,-0.0596 -0.038985,-0.0397 -0.058477,-0.0885 -0.058475,-0.14669 v -1.25551 c -1.9e-6,-0.17415 -0.03823,-0.31086 -0.1146862,-0.41016 -0.076458,-0.0993 -0.2031328,-0.14893 -0.3800203,-0.14893 z" />
      <path
         inkscape:connector-curvature="0"
         id="path3770"
         style="font-style:normal;font-variant:normal;font-weight:normal;font-stretch:normal;font-size:28px;line-height:125%;font-family:'Varela Round';-inkscape-font-specification:'Varela Round';letter-spacing:0px;word-spacing:0px;fill:#737373;fill-opacity:1;stroke:#737373;stroke-width:0.0319951;stroke-miterlimit:4;stroke-dasharray:none;stroke-opacity:1"
         d="m 8.2548362,329.17044 c 0.2519275,-0.10991 0.5128244,-0.16486 0.7826911,-0.16486 0.3058275,0 0.542704,0.0946 0.7106277,0.28401 0.1499847,0.16502 0.2249784,0.37123 0.2249784,0.61867 v 1.29676 c 0,0.0581 -0.020248,0.10699 -0.06074,0.14669 -0.040495,0.0397 -0.089248,0.0596 -0.146256,0.0596 -0.056924,0 -0.1048744,-0.0198 -0.1438553,-0.0596 -0.038985,-0.0397 -0.058479,-0.0885 -0.058477,-0.14669 v -0.11915 c -0.080989,0.0856 -0.1897019,0.16505 -0.3261443,0.23837 -0.1364432,0.0733 -0.3096281,0.10999 -0.5195528,0.10999 -0.2069057,0 -0.3793128,-0.0611 -0.5172185,-0.18335 -0.1439475,-0.12827 -0.2159213,-0.29632 -0.2159193,-0.50412 -2e-6,-0.22599 0.08396,-0.40317 0.2518832,-0.53154 0.1829294,-0.1405 0.4438264,-0.21075 0.782691,-0.21075 h 0.5442607 v -0.0366 c -1.8e-6,-0.20473 -0.049485,-0.35061 -0.148453,-0.43764 -0.098971,-0.087 -0.2503968,-0.13054 -0.4542824,-0.13054 -0.1739628,0 -0.3733641,0.0366 -0.5982059,0.10992 -0.023977,0.006 -0.050972,0.009 -0.080988,0.009 -0.030017,0 -0.061519,-0.016 -0.094508,-0.0481 -0.032988,-0.0321 -0.049483,-0.0817 -0.049483,-0.14894 0,-0.0672 0.038982,-0.11765 0.1169514,-0.15131 z m 0.1394614,1.53058 c 0,0.24436 0.1589079,0.36653 0.476725,0.36653 0.1410179,0 0.2722452,-0.0351 0.3936809,-0.10536 0.1214329,-0.0703 0.2211335,-0.14966 0.299102,-0.23823 v -0.38499 H 9.073491 c -0.2128552,0 -0.3792675,0.0276 -0.4992369,0.0825 -0.1199723,0.055 -0.1799565,0.14819 -0.1799565,0.27954 z" />
      <path
         inkscape:connector-curvature="0"
         id="path3772"
         style="font-style:normal;font-variant:normal;font-weight:normal;font-stretch:normal;font-size:28px;line-height:125%;font-family:'Varela Round';-inkscape-font-specification:'Varela Round';letter-spacing:0px;word-spacing:0px;fill:#737373;fill-opacity:1;stroke:#737373;stroke-width:0.0324283;stroke-miterlimit:4;stroke-dasharray:none;stroke-opacity:1"
         d="m 11.073736,329.42705 c 0.182837,-0.28099 0.437694,-0.42147 0.764572,-0.42147 0.161973,0 0.308893,0.0488 0.440761,0.14654 0.107981,0.0764 0.190478,0.18483 0.247491,0.32542 0.08392,-0.13444 0.166365,-0.22915 0.247354,-0.28416 0.17094,-0.12521 0.364348,-0.1878 0.580226,-0.1878 0.242866,0 0.433254,0.0946 0.571163,0.28401 0.119968,0.16194 0.179952,0.36052 0.179957,0.59574 v 1.31969 c -5e-6,0.0581 -0.02025,0.10699 -0.06074,0.14669 -0.0405,0.0397 -0.0892,0.0596 -0.14612,0.0596 -0.05701,0 -0.105012,-0.0198 -0.143992,-0.0596 -0.03898,-0.0397 -0.05848,-0.0885 -0.05848,-0.14669 v -1.23719 c -4e-6,-0.19242 -0.03373,-0.33676 -0.101167,-0.43303 -0.06745,-0.0963 -0.186638,-0.14439 -0.357577,-0.14439 -0.26392,0 -0.479842,0.14665 -0.64776,0.43996 v 1.37465 c -2e-6,0.0581 -0.02023,0.10699 -0.06068,0.14669 -0.04045,0.0397 -0.08918,0.0596 -0.146188,0.0596 -0.05701,0 -0.105012,-0.0198 -0.143993,-0.0596 -0.03898,-0.0397 -0.05848,-0.0885 -0.05848,-0.14669 v -1.23719 c -4e-6,-0.19242 -0.03373,-0.33676 -0.101167,-0.43303 -0.06745,-0.0963 -0.186637,-0.14439 -0.357577,-0.14439 -0.263827,0 -0.479701,0.14665 -0.647622,0.43996 v 1.37465 c -2e-6,0.0581 -0.02025,0.10699 -0.06074,0.14669 -0.04049,0.0397 -0.08925,0.0596 -0.146258,0.0596 -0.05692,0 -0.104872,-0.0198 -0.143855,-0.0596 -0.03898,-0.0397 -0.05848,-0.0885 -0.05848,-0.14669 v -1.96578 c 0,-0.0581 0.0195,-0.10774 0.05848,-0.14899 0.03898,-0.0413 0.08693,-0.0619 0.143855,-0.0619 0.05701,0 0.105764,0.0206 0.146258,0.0619 0.04049,0.0413 0.06074,0.0909 0.06074,0.14899 z" />
      <path
         inkscape:connector-curvature="0"
         id="path3774"
         style="font-style:normal;font-variant:normal;font-weight:normal;font-stretch:normal;font-size:28px;line-height:125%;font-family:'Varela Round';-inkscape-font-specification:'Varela Round';letter-spacing:0px;word-spacing:0px;fill:#737373;fill-opacity:1;stroke:#737373;stroke-width:0.0324283;stroke-miterlimit:4;stroke-dasharray:none;stroke-opacity:1"
         d="m 15.080949,330.36652 c 0.02398,0.20772 0.100434,0.37266 0.229373,0.49484 0.128937,0.12217 0.30887,0.18326 0.539798,0.18326 0.230925,0 0.424357,-0.0397 0.580293,-0.11915 0.05399,-0.0275 0.100454,-0.0411 0.139395,-0.0411 0.03893,0 0.07641,0.0168 0.112419,0.0504 0.03601,0.0335 0.05401,0.0717 0.05402,0.11454 -10e-7,0.0795 -0.03224,0.13672 -0.09671,0.17186 -0.06448,0.0352 -0.122193,0.0649 -0.173162,0.0894 -0.05097,0.0245 -0.106475,0.0458 -0.166504,0.0642 -0.134889,0.0397 -0.290778,0.0596 -0.467668,0.0596 -0.36888,0 -0.655262,-0.1054 -0.859147,-0.31618 -0.203887,-0.2108 -0.30583,-0.5102 -0.30583,-0.89822 0,-0.336 0.08543,-0.61549 0.256278,-0.8385 0.191987,-0.25051 0.464872,-0.37575 0.818654,-0.37575 0.335844,0 0.601224,0.11607 0.796144,0.3482 0.182927,0.21694 0.274394,0.48577 0.274395,0.80648 -1e-6,0.0581 -0.01874,0.10698 -0.05621,0.14669 -0.03748,0.0397 -0.0877,0.0596 -0.15065,0.0596 z m 0.661211,-1.00812 c -0.266847,0 -0.461765,0.12063 -0.584754,0.3619 -0.04494,0.0856 -0.07042,0.18796 -0.07646,0.3071 H 16.4079 c -0.01198,-0.21694 -0.08996,-0.38801 -0.233901,-0.51322 -0.119974,-0.10386 -0.263919,-0.15578 -0.431839,-0.15578 z" />
      <path
         inkscape:connector-curvature="0"
         id="path3776"
         style="font-style:normal;font-variant:normal;font-weight:normal;font-stretch:normal;font-size:28px;line-height:125%;font-family:'Varela Round';-inkscape-font-specification:'Varela Round';letter-spacing:0px;word-spacing:0px;fill:#737373;fill-opacity:1;stroke:#737373;stroke-width:0.0324283;stroke-miterlimit:4;stroke-dasharray:none;stroke-opacity:1"
         d="m 17.776719,329.43629 c 0.209835,-0.28715 0.445201,-0.43071 0.706099,-0.43071 h 0.02251 c 0.05701,0 0.10425,0.0198 0.141726,0.0596 0.03748,0.0397 0.05621,0.0894 0.05621,0.14894 -2e-6,0.0596 -0.0195,0.1069 -0.05848,0.14201 -0.03898,0.0351 -0.08849,0.0526 -0.148522,0.0526 h -0.02238 c -0.14999,0 -0.284188,0.0375 -0.402603,0.11231 -0.118417,0.0748 -0.216606,0.17186 -0.294574,0.29101 v 1.39297 c 0,0.0581 -0.02025,0.10699 -0.06074,0.14669 -0.04049,0.0397 -0.08925,0.0596 -0.146257,0.0596 -0.05692,0 -0.104872,-0.0198 -0.143854,-0.0596 -0.03898,-0.0397 -0.05848,-0.0885 -0.05848,-0.14669 v -1.96578 c -2e-6,-0.0581 0.01949,-0.10774 0.05848,-0.14899 0.03898,-0.0413 0.08693,-0.0619 0.143854,-0.0619 0.05701,0 0.105763,0.0206 0.146257,0.0619 0.04049,0.0413 0.06074,0.0909 0.06074,0.14899 z" />
      <path
         inkscape:connector-curvature="0"
         id="path3778"
         style="font-style:normal;font-variant:normal;font-weight:normal;font-stretch:normal;font-size:28px;line-height:125%;font-family:'Varela Round';-inkscape-font-specification:'Varela Round';letter-spacing:0px;word-spacing:0px;fill:#737373;fill-opacity:1;stroke:#737373;stroke-width:0.0324283;stroke-miterlimit:4;stroke-dasharray:none;stroke-opacity:1"
         d="m 19.124812,329.23924 c 0,-0.0612 0.01949,-0.11159 0.05848,-0.1513 0.03898,-0.0397 0.08771,-0.0596 0.146189,-0.0596 0.05848,0 0.107204,0.0198 0.146189,0.0596 0.03898,0.0397 0.05848,0.0902 0.05848,0.1513 v 1.96578 c 0,0.0581 -0.0195,0.10699 -0.05848,0.14669 -0.03898,0.0397 -0.08772,0.0596 -0.146189,0.0596 -0.05848,0 -0.107205,-0.0198 -0.146189,-0.0596 -0.03898,-0.0397 -0.05848,-0.0885 -0.05848,-0.14669 z m 0.449822,-0.8982 c -2e-6,0.0641 -0.02249,0.11912 -0.06747,0.16494 -0.04498,0.0458 -0.099,0.0687 -0.162042,0.0687 h -0.02691 c -0.06296,0 -0.116928,-0.0229 -0.161906,-0.0687 -0.04498,-0.0458 -0.06747,-0.10084 -0.06747,-0.16494 v -0.0184 c 0,-0.0641 0.02249,-0.11913 0.06747,-0.16495 0.04498,-0.0458 0.09895,-0.0687 0.161906,-0.0687 h 0.02691 c 0.06305,0 0.117064,0.0229 0.162042,0.0687 0.04498,0.0458 0.06747,0.10083 0.06747,0.16495 z" />
      <path
         inkscape:connector-curvature="0"
         id="path3780"
         style="font-style:normal;font-variant:normal;font-weight:normal;font-stretch:normal;font-size:28px;line-height:125%;font-family:'Varela Round';-inkscape-font-specification:'Varela Round';letter-spacing:0px;word-spacing:0px;fill:#737373;fill-opacity:1;stroke:#737373;stroke-width:0.0324283;stroke-miterlimit:4;stroke-dasharray:none;stroke-opacity:1"
         d="m 21.354976,331.04462 c 0.167921,0 0.328339,-0.0427 0.481256,-0.12824 0.05399,-0.0306 0.101961,-0.0458 0.143924,-0.0458 0.04195,0 0.07943,0.0198 0.112421,0.0596 0.03299,0.0397 0.04948,0.0871 0.04949,0.14208 -2e-6,0.055 -0.0345,0.1054 -0.103499,0.15117 -0.212855,0.14059 -0.452752,0.21089 -0.719687,0.21089 -0.332826,0 -0.61317,-0.10694 -0.841029,-0.32081 -0.239943,-0.22607 -0.359913,-0.52394 -0.359913,-0.89359 0,-0.36966 0.11997,-0.66752 0.359913,-0.8936 0.227859,-0.21377 0.508203,-0.32065 0.841029,-0.32065 0.17991,0 0.327608,0.0236 0.443096,0.071 0.115484,0.0473 0.207705,0.0939 0.27666,0.13971 0.06895,0.0458 0.103428,0.0962 0.10343,0.15123 -2e-6,0.055 -0.01649,0.10239 -0.04949,0.14209 -0.033,0.0397 -0.06596,0.0596 -0.09889,0.0596 -0.05098,10e-6 -0.103457,-0.0153 -0.157446,-0.0458 -0.152917,-0.0855 -0.313335,-0.12823 -0.481256,-0.12824 -0.263918,10e-6 -0.46785,0.0756 -0.611795,0.22682 -0.143947,0.15123 -0.21592,0.35056 -0.215919,0.59798 -10e-7,0.24743 0.07197,0.44676 0.215919,0.59797 0.143945,0.15121 0.347877,0.22682 0.611795,0.22682 z" />
      <path
         inkscape:connector-curvature="0"
         id="path3782"
         style="font-style:normal;font-variant:normal;font-weight:normal;font-stretch:normal;font-size:28px;line-height:125%;font-family:'Varela Round';-inkscape-font-specification:'Varela Round';letter-spacing:0px;word-spacing:0px;fill:#737373;fill-opacity:1;stroke:#737373;stroke-width:0.0324283;stroke-miterlimit:4;stroke-dasharray:none;stroke-opacity:1"
         d="m 22.758936,329.17044 c 0.251927,-0.10991 0.512825,-0.16486 0.782691,-0.16486 0.305827,0 0.542703,0.0946 0.710628,0.28401 0.149983,0.16502 0.224978,0.37123 0.22498,0.61867 v 1.29676 c -2e-6,0.0581 -0.02025,0.10699 -0.06074,0.14669 -0.0405,0.0397 -0.08925,0.0596 -0.146258,0.0596 -0.05692,0 -0.104874,-0.0198 -0.143856,-0.0596 -0.03898,-0.0397 -0.05848,-0.0885 -0.05848,-0.14669 v -0.11915 c -0.08099,0.0856 -0.189703,0.16505 -0.326145,0.23837 -0.136443,0.0733 -0.309626,0.10999 -0.519552,0.10999 -0.206907,0 -0.379314,-0.0611 -0.51722,-0.18335 -0.143945,-0.12827 -0.215919,-0.29632 -0.215919,-0.50412 0,-0.22599 0.08396,-0.40317 0.251884,-0.53154 0.182929,-0.1405 0.443825,-0.21075 0.782693,-0.21075 h 0.544259 v -0.0366 c -10e-7,-0.20473 -0.04949,-0.35061 -0.148454,-0.43764 -0.09897,-0.087 -0.250397,-0.13054 -0.454282,-0.13054 -0.173963,0 -0.373365,0.0366 -0.598207,0.10992 -0.02398,0.006 -0.05098,0.009 -0.08099,0.009 -0.03001,0 -0.06151,-0.016 -0.09451,-0.0481 -0.033,-0.0321 -0.04949,-0.0817 -0.04949,-0.14894 0,-0.0672 0.03898,-0.11765 0.116951,-0.15131 z m 0.139462,1.53058 c 0,0.24436 0.158909,0.36653 0.476725,0.36653 0.141018,0 0.272245,-0.0351 0.393681,-0.10536 0.121433,-0.0703 0.221135,-0.14966 0.299103,-0.23823 v -0.38499 h -0.490315 c -0.212856,0 -0.379269,0.0276 -0.499238,0.0825 -0.119971,0.055 -0.179956,0.14819 -0.179956,0.27954 z" />
      <path
         inkscape:connector-curvature="0"
         id="path3784"
         style="font-style:normal;font-variant:normal;font-weight:normal;font-stretch:normal;font-size:28px;line-height:125%;font-family:'Varela Round';-inkscape-font-specification:'Varela Round';letter-spacing:0px;word-spacing:0px;fill:#737373;fill-opacity:1;stroke:#737373;stroke-width:0.0324283;stroke-miterlimit:4;stroke-dasharray:none;stroke-opacity:1"
         d="m 26.315504,329.39041 c -0.263918,0 -0.509808,0.14665 -0.737669,0.43996 v 1.37465 c 0,0.0581 -0.02025,0.10699 -0.06074,0.14669 -0.04049,0.0397 -0.08925,0.0596 -0.146256,0.0596 -0.05692,0 -0.104874,-0.0198 -0.143856,-0.0596 -0.03898,-0.0397 -0.05848,-0.0885 -0.05848,-0.14669 v -1.96578 c -2e-6,-0.0612 0.01949,-0.11159 0.05848,-0.1513 0.03898,-0.0397 0.08693,-0.0596 0.143856,-0.0596 0.05701,0 0.105762,0.0198 0.146256,0.0596 0.04049,0.0397 0.06074,0.0902 0.06074,0.1513 v 0.18781 c 0.119879,-0.12828 0.223331,-0.21838 0.31036,-0.27031 0.170849,-0.10074 0.333485,-0.15116 0.487912,-0.15116 0.154423,0 0.28112,0.0236 0.380091,0.071 0.09897,0.0473 0.182951,0.11222 0.251952,0.19473 0.140925,0.168 0.211386,0.37879 0.21139,0.63238 v 1.30137 c -4e-6,0.0581 -0.02025,0.10699 -0.06074,0.14669 -0.04049,0.0397 -0.0892,0.0596 -0.146118,0.0596 -0.05701,0 -0.105011,-0.0198 -0.143992,-0.0596 -0.03898,-0.0397 -0.05848,-0.0885 -0.05848,-0.14669 v -1.25551 c -1e-6,-0.17415 -0.03823,-0.31086 -0.114686,-0.41016 -0.07646,-0.0993 -0.203131,-0.14893 -0.380021,-0.14893 z" />
      <path
         inkscape:connector-curvature="0"
         id="path3786"
         style="font-style:normal;font-variant:normal;font-weight:normal;font-stretch:normal;font-size:28px;line-height:125%;font-family:'Varela Round';-inkscape-font-specification:'Varela Round';letter-spacing:0px;word-spacing:0px;fill:#99cc33;fill-opacity:1;stroke:#99cc33;stroke-width:0.0324283;stroke-miterlimit:4;stroke-dasharray:none;stroke-opacity:1"
         d="m 30.818523,331.41591 c -0.08401,0.0122 -0.173964,0.0183 -0.269865,0.0183 -0.476773,0 -0.857595,-0.1543 -1.142467,-0.46289 -0.284873,-0.30551 -0.430331,-0.69959 -0.436369,-1.18223 0.006,-0.48265 0.151496,-0.87672 0.436369,-1.18224 0.284872,-0.30858 0.665694,-0.46287 1.142467,-0.46287 0.473749,0 0.854571,0.15429 1.142467,0.46287 0.27883,0.30244 0.424239,0.69652 0.436232,1.18224 -0.006,0.36051 -0.08989,0.67364 -0.251814,0.9394 -0.161932,0.26574 -0.388353,0.45972 -0.679263,0.58196 l 0.395876,0.44441 c 0.03596,0.0367 0.05394,0.0818 0.05395,0.1353 -3e-6,0.0535 -0.01874,0.0993 -0.05621,0.13746 -0.03748,0.0382 -0.08394,0.0573 -0.139394,0.0573 -0.05545,0 -0.102673,-0.0245 -0.14166,-0.0734 z m -0.269865,-0.37129 c 0.365858,0 0.653706,-0.12064 0.863542,-0.36192 0.203883,-0.23223 0.305826,-0.53009 0.305829,-0.89359 -3e-6,-0.36349 -0.101951,-0.66137 -0.305829,-0.8936 -0.209836,-0.24127 -0.497684,-0.36191 -0.863542,-0.36191 -0.365862,0 -0.653756,0.12064 -0.86368,0.36191 -0.203886,0.23223 -0.30583,0.53011 -0.30583,0.8936 0,0.3635 0.101941,0.66136 0.30583,0.89359 0.209924,0.24128 0.497818,0.36192 0.86368,0.36192 z" />
      <path
         inkscape:connector-curvature="0"
         id="path3788"
         style="font-style:normal;font-variant:normal;font-weight:normal;font-stretch:normal;font-size:28px;line-height:125%;font-family:'Varela Round';-inkscape-font-specification:'Varela Round';letter-spacing:0px;word-spacing:0px;fill:#737373;fill-opacity:1;stroke:#737373;stroke-width:0.0324283;stroke-miterlimit:4;stroke-dasharray:none;stroke-opacity:1"
         d="m 33.618481,331.04923 c 0.263914,0 0.509804,-0.14665 0.737667,-0.43994 v -1.37466 c -10e-7,-0.0581 0.02025,-0.10698 0.06074,-0.14669 0.04049,-0.0397 0.08919,-0.0596 0.146121,-0.0596 0.05701,0 0.105006,0.0198 0.143992,0.0596 0.03898,0.0397 0.05847,0.0886 0.05848,0.14669 v 1.96592 c -3e-6,0.0611 -0.0195,0.11146 -0.05848,0.15116 -0.03898,0.0397 -0.08699,0.0596 -0.143992,0.0596 -0.05692,0 -0.105627,-0.0198 -0.146121,-0.0596 -0.0405,-0.0397 -0.06074,-0.0901 -0.06074,-0.15116 v -0.18796 c -0.119972,0.12829 -0.223425,0.2184 -0.310359,0.27032 -0.170942,0.10084 -0.333627,0.15132 -0.488048,0.15132 -0.154426,0 -0.281123,-0.0236 -0.380091,-0.071 -0.09897,-0.0474 -0.182909,-0.1123 -0.251815,-0.19481 -0.140928,-0.16799 -0.211391,-0.37878 -0.211391,-0.63237 v -1.30138 c 0,-0.0581 0.02022,-0.10698 0.06068,-0.14669 0.04045,-0.0397 0.08917,-0.0596 0.146187,-0.0596 0.05701,0 0.104985,0.0198 0.143924,0.0596 0.03894,0.0397 0.05841,0.0887 0.05841,0.14669 v 1.25552 c -2e-6,0.17414 0.03825,0.31086 0.114754,0.41015 0.0765,0.0993 0.203199,0.14893 0.380091,0.14893 z" />
      <path
         inkscape:connector-curvature="0"
         id="path3790"
         style="font-style:normal;font-variant:normal;font-weight:normal;font-stretch:normal;font-size:28px;line-height:125%;font-family:'Varela Round';-inkscape-font-specification:'Varela Round';letter-spacing:0px;word-spacing:0px;fill:#737373;fill-opacity:1;stroke:#737373;stroke-width:0.0324283;stroke-miterlimit:4;stroke-dasharray:none;stroke-opacity:1"
         d="m 35.558739,329.17044 c 0.251928,-0.10991 0.512824,-0.16486 0.782692,-0.16486 0.305827,0 0.542703,0.0946 0.710628,0.28401 0.149983,0.16502 0.224976,0.37123 0.224977,0.61867 v 1.29676 c -1e-6,0.0581 -0.02025,0.10699 -0.06074,0.14669 -0.0405,0.0397 -0.08924,0.0596 -0.146256,0.0596 -0.05692,0 -0.104874,-0.0198 -0.143855,-0.0596 -0.03898,-0.0397 -0.05848,-0.0885 -0.05848,-0.14669 v -0.11915 c -0.08099,0.0856 -0.189703,0.16505 -0.326144,0.23837 -0.136442,0.0733 -0.309628,0.10999 -0.519552,0.10999 -0.206907,0 -0.379313,-0.0611 -0.51722,-0.18335 -0.143948,-0.12827 -0.21592,-0.29632 -0.215919,-0.50412 -1e-6,-0.22599 0.08396,-0.40317 0.251883,-0.53154 0.182931,-0.1405 0.443827,-0.21075 0.782693,-0.21075 h 0.544259 v -0.0366 c -2e-6,-0.20473 -0.04949,-0.35061 -0.148453,-0.43764 -0.09897,-0.087 -0.250397,-0.13054 -0.454282,-0.13054 -0.173962,0 -0.373365,0.0366 -0.598206,0.10992 -0.02398,0.006 -0.05098,0.009 -0.08099,0.009 -0.03001,0 -0.06151,-0.016 -0.09451,-0.0481 -0.03299,-0.0321 -0.04948,-0.0817 -0.04948,-0.14894 0,-0.0672 0.03898,-0.11765 0.116952,-0.15131 z m 0.139461,1.53058 c 0,0.24436 0.158908,0.36653 0.476726,0.36653 0.141017,0 0.272244,-0.0351 0.39368,-0.10536 0.121434,-0.0703 0.221134,-0.14966 0.299102,-0.23823 v -0.38499 h -0.490314 c -0.212854,0 -0.379268,0.0276 -0.499237,0.0825 -0.119972,0.055 -0.179957,0.14819 -0.179957,0.27954 z" />
      <path
         inkscape:connector-curvature="0"
         id="path3792"
         style="font-style:normal;font-variant:normal;font-weight:normal;font-stretch:normal;font-size:28px;line-height:125%;font-family:'Varela Round';-inkscape-font-specification:'Varela Round';letter-spacing:0px;word-spacing:0px;fill:#737373;fill-opacity:1;stroke:#737373;stroke-width:0.0324283;stroke-miterlimit:4;stroke-dasharray:none;stroke-opacity:1"
         d="m 38.004273,328.23112 c 0,-0.0611 0.0195,-0.11157 0.05848,-0.15124 0.03898,-0.0396 0.08772,-0.0596 0.14619,-0.0596 0.05848,0 0.107204,0.0198 0.146187,0.0596 0.03898,0.0396 0.05848,0.0901 0.05848,0.15124 v 2.9739 c -2e-6,0.0581 -0.0195,0.10699 -0.05848,0.14669 -0.03898,0.0397 -0.08772,0.0596 -0.146187,0.0596 -0.05848,0 -0.107205,-0.0198 -0.14619,-0.0596 -0.03898,-0.0397 -0.05848,-0.0885 -0.05848,-0.14669 z" />
      <path
         inkscape:connector-curvature="0"
         id="path3794"
         style="font-style:normal;font-variant:normal;font-weight:normal;font-stretch:normal;font-size:28px;line-height:125%;font-family:'Varela Round';-inkscape-font-specification:'Varela Round';letter-spacing:0px;word-spacing:0px;fill:#737373;fill-opacity:1;stroke:#737373;stroke-width:0.0324283;stroke-miterlimit:4;stroke-dasharray:none;stroke-opacity:1"
         d="m 39.181057,329.23924 c 0,-0.0612 0.0195,-0.11159 0.05848,-0.1513 0.03898,-0.0397 0.08771,-0.0596 0.146187,-0.0596 0.05848,0 0.107204,0.0198 0.146188,0.0596 0.03898,0.0397 0.05848,0.0902 0.05848,0.1513 v 1.96578 c -2e-6,0.0581 -0.0195,0.10699 -0.05848,0.14669 -0.03898,0.0397 -0.08772,0.0596 -0.146188,0.0596 -0.05848,0 -0.107205,-0.0198 -0.146187,-0.0596 -0.03898,-0.0397 -0.05848,-0.0885 -0.05848,-0.14669 z m 0.449822,-0.8982 c 0,0.0641 -0.02249,0.11912 -0.06747,0.16494 -0.04498,0.0458 -0.09899,0.0687 -0.162043,0.0687 h -0.02691 c -0.06296,0 -0.11693,-0.0229 -0.161905,-0.0687 -0.04498,-0.0458 -0.06747,-0.10084 -0.06747,-0.16494 v -0.0184 c 0,-0.0641 0.02249,-0.11913 0.06747,-0.16495 0.04498,-0.0458 0.09895,-0.0687 0.161905,-0.0687 h 0.02691 c 0.06305,0 0.117064,0.0229 0.162043,0.0687 0.04498,0.0458 0.06747,0.10083 0.06747,0.16495 z" />
      <path
         inkscape:connector-curvature="0"
         id="path3796"
         style="font-style:normal;font-variant:normal;font-weight:normal;font-stretch:normal;font-size:28px;line-height:125%;font-family:'Varela Round';-inkscape-font-specification:'Varela Round';letter-spacing:0px;word-spacing:0px;fill:#737373;fill-opacity:1;stroke:#737373;stroke-width:0.0324283;stroke-miterlimit:4;stroke-dasharray:none;stroke-opacity:1"
         d="m 41.161533,331.06755 c 0.07943,0 0.136398,-0.007 0.170896,-0.0206 0.0345,-0.0137 0.072,-0.0206 0.112493,-0.0206 0.04049,0 0.07723,0.0153 0.110223,0.0458 0.03298,0.0306 0.04949,0.0764 0.04949,0.13747 0,0.0611 -0.03001,0.10536 -0.09005,0.13285 -0.128934,0.0612 -0.239139,0.0918 -0.330604,0.0918 -0.09146,0 -0.17467,-0.004 -0.249618,-0.0138 -0.07495,-0.009 -0.146921,-0.0352 -0.215919,-0.0779 -0.164903,-0.0977 -0.247353,-0.26878 -0.247353,-0.51323 v -1.42052 H 40.15167 c -0.05692,0 -0.08538,-0.029 -0.08538,-0.087 0,-0.0275 0.01349,-0.0535 0.04049,-0.0779 l 0.611658,-0.60958 c 0.027,-0.0273 0.05248,-0.0411 0.07646,-0.0411 0.02398,0 0.04423,0.009 0.06074,0.0274 0.01651,0.0184 0.02478,0.0397 0.02478,0.0641 v 0.36653 h 0.508301 c 0.05097,0 0.09294,0.0168 0.125943,0.0504 0.03297,0.0337 0.04948,0.0764 0.04948,0.12831 0,0.0519 -0.0165,0.0946 -0.04948,0.1283 -0.033,0.0336 -0.07497,0.0505 -0.125943,0.0505 H 40.88042 v 1.38388 c 0,0.11607 0.0345,0.19551 0.103498,0.2383 0.03898,0.0245 0.09819,0.0366 0.177622,0.0366 z" />
      <path
         inkscape:connector-curvature="0"
         id="path3798"
         style="font-style:normal;font-variant:normal;font-weight:normal;font-stretch:normal;font-size:28px;line-height:125%;font-family:'Varela Round';-inkscape-font-specification:'Varela Round';letter-spacing:0px;word-spacing:0px;fill:#737373;fill-opacity:1;stroke:#737373;stroke-width:0.0324283;stroke-miterlimit:4;stroke-dasharray:none;stroke-opacity:1"
         d="m 43.784968,329.02836 c 0.057,0 0.105002,0.0206 0.14399,0.0619 0.03898,0.0413 0.05848,0.084 0.05848,0.1283 0,0.0443 -0.0045,0.0771 -0.01344,0.0986 l -1.227991,3.00606 c -0.03898,0.0947 -0.101941,0.14195 -0.188871,0.14195 -0.054,0 -0.09973,-0.0198 -0.137202,-0.0596 -0.03748,-0.0396 -0.05622,-0.0794 -0.05621,-0.11908 -10e-6,-0.0397 0.0045,-0.0718 0.01344,-0.0963 l 0.292383,-0.76523 -0.845565,-2.09876 c -0.01209,-0.0304 -0.01811,-0.0671 -0.01811,-0.10992 0,-0.0427 0.01949,-0.0848 0.05847,-0.12606 0.03898,-0.0413 0.08251,-0.0619 0.130548,-0.0619 0.09892,0 0.166363,0.0428 0.202322,0.12838 l 0.692788,1.75041 0.706095,-1.74118 c 0.03898,-0.0917 0.10194,-0.13761 0.18888,-0.13761 z" />
      <path
         inkscape:connector-curvature="0"
         id="path3800"
         style="font-style:normal;font-variant:normal;font-weight:normal;font-stretch:normal;font-size:28px;line-height:125%;font-family:'Varela Round';-inkscape-font-specification:'Varela Round';letter-spacing:0px;word-spacing:0px;fill:#99cc33;fill-opacity:1;stroke:#99cc33;stroke-width:0.0324283;stroke-miterlimit:4;stroke-dasharray:none;stroke-opacity:1"
         d="m 46.650122,331.04014 c 0.524723,10e-6 0.787089,-0.17568 0.787089,-0.52706 0,-0.14665 -0.100485,-0.26426 -0.301441,-0.35282 -0.08693,-0.0366 -0.188121,-0.0695 -0.303565,-0.0986 -0.115434,-0.029 -0.232387,-0.0604 -0.35085,-0.0939 -0.118462,-0.0336 -0.235406,-0.0717 -0.350851,-0.11453 -0.115443,-0.0427 -0.218138,-0.0977 -0.308092,-0.16494 -0.197853,-0.15271 -0.296768,-0.35432 -0.296768,-0.60482 0,-0.26887 0.09892,-0.48885 0.296768,-0.65993 0.215965,-0.18636 0.505319,-0.27954 0.868073,-0.27954 0.326871,0 0.625244,0.0505 0.89511,0.15131 0.084,0.0304 0.12601,0.0915 0.12601,0.18319 0,0.0458 -0.01574,0.0895 -0.04722,0.13069 -0.03149,0.0413 -0.06598,0.0619 -0.103503,0.0619 -0.03752,1e-5 -0.08922,-0.0123 -0.155114,-0.0367 -0.194919,-0.0702 -0.418335,-0.10529 -0.670269,-0.1053 -0.230879,1e-5 -0.421269,0.0443 -0.571162,0.13285 -0.153009,0.0917 -0.229512,0.22147 -0.229503,0.38946 -9e-6,0.17416 0.09897,0.30551 0.296902,0.39408 0.08996,0.0428 0.191919,0.0779 0.305901,0.10544 0.113973,0.0276 0.230926,0.0566 0.350851,0.087 0.119925,0.0306 0.236849,0.0665 0.350783,0.10768 0.113924,0.0413 0.215869,0.0955 0.305824,0.16271 0.197938,0.14665 0.296902,0.35744 0.296913,0.63237 -1.1e-5,0.26272 -0.103455,0.47654 -0.310364,0.64146 -0.21285,0.16808 -0.493244,0.25214 -0.841161,0.25214 -0.380782,0 -0.737583,-0.0734 -1.070406,-0.21997 -0.03304,-0.0153 -0.0623,-0.0397 -0.08778,-0.0734 -0.02549,-0.0336 -0.03823,-0.0741 -0.03823,-0.12145 0,-0.0474 0.01649,-0.0901 0.04949,-0.1283 0.03299,-0.0382 0.07122,-0.0573 0.114684,-0.0573 0.04347,0 0.09744,0.0145 0.161902,0.0435 0.06446,0.029 0.17019,0.0634 0.317161,0.10311 0.14696,0.0397 0.317901,0.0596 0.512819,0.0596 z" />
      <path
         inkscape:connector-curvature="0"
         id="path3802"
         style="font-style:normal;font-variant:normal;font-weight:normal;font-stretch:normal;font-size:28px;line-height:125%;font-family:'Varela Round';-inkscape-font-specification:'Varela Round';letter-spacing:0px;word-spacing:0px;fill:#737373;fill-opacity:1;stroke:#737373;stroke-width:0.0324283;stroke-miterlimit:4;stroke-dasharray:none;stroke-opacity:1"
         d="m 49.399293,329.00558 c 0.347919,0 0.626803,0.11149 0.836634,0.3345 0.209928,0.22608 0.314891,0.51933 0.314891,0.87975 0,0.36051 -0.104963,0.65381 -0.314891,0.87989 -0.209831,0.223 -0.488715,0.33451 -0.836634,0.33451 -0.350763,0 -0.629599,-0.11151 -0.836498,-0.33451 -0.209928,-0.223 -0.314891,-0.5163 -0.314891,-0.87989 0,-0.3635 0.104963,-0.65676 0.314891,-0.87975 0.206899,-0.22301 0.485735,-0.3345 0.836498,-0.3345 z m -0.501435,1.85823 c 0.07046,0.0656 0.149922,0.11371 0.238368,0.14424 0.08845,0.0305 0.175401,0.0458 0.260875,0.0458 0.08547,0 0.172422,-0.0153 0.260867,-0.0458 0.08845,-0.0306 0.16868,-0.0779 0.240704,-0.14215 0.161874,-0.14963 0.24282,-0.36653 0.24282,-0.65068 0,-0.27493 -0.08095,-0.48875 -0.24282,-0.64146 -0.134981,-0.1253 -0.301441,-0.18796 -0.499379,-0.18796 -0.323765,0 -0.548653,0.14819 -0.674663,0.44457 -0.04493,0.10693 -0.0674,0.23601 -0.0674,0.38722 0,0.15121 0.02249,0.2803 0.06747,0.38722 0.04498,0.10694 0.102693,0.19327 0.17316,0.259 z" />
      <path
         inkscape:connector-curvature="0"
         id="path3804"
         style="font-style:normal;font-variant:normal;font-weight:normal;font-stretch:normal;font-size:28px;line-height:125%;font-family:'Varela Round';-inkscape-font-specification:'Varela Round';letter-spacing:0px;word-spacing:0px;fill:#737373;fill-opacity:1;stroke:#737373;stroke-width:0.0324283;stroke-miterlimit:4;stroke-dasharray:none;stroke-opacity:1"
         d="m 52.293417,328.42354 -0.22484,-0.0276 c -0.113935,0 -0.203889,0.0267 -0.269865,0.0802 -0.06598,0.0535 -0.09898,0.16117 -0.09898,0.32311 v 0.252 h 0.562238 c 0.05098,0 0.09295,0.0168 0.125944,0.0505 0.03299,0.0336 0.04949,0.0764 0.04949,0.1283 0,0.0519 -0.01649,0.0947 -0.04949,0.12831 -0.03299,0.0336 -0.07497,0.0504 -0.125944,0.0504 h -0.562238 v 1.79629 c 0,0.0581 -0.01949,0.10699 -0.05848,0.14669 -0.03899,0.0397 -0.08772,0.0596 -0.146192,0.0596 -0.05848,0 -0.107204,-0.0198 -0.146182,-0.0596 -0.03898,-0.0397 -0.05848,-0.0885 -0.05848,-0.14669 v -1.79629 h -0.265337 c -0.05107,0 -0.09307,-0.0168 -0.12601,-0.0504 -0.03294,-0.0336 -0.04941,-0.0764 -0.04941,-0.12831 0,-0.0519 0.01647,-0.0947 0.04941,-0.1283 0.03294,-0.0337 0.07494,-0.0505 0.12601,-0.0505 h 0.265337 v -0.26571 c 0,-0.26578 0.07343,-0.47047 0.220312,-0.61404 0.119972,-0.11607 0.271423,-0.17411 0.454353,-0.17411 0.140922,0 0.271374,0.0306 0.391347,0.0917 0.069,0.0397 0.103492,0.0871 0.103492,0.14208 0,0.055 -0.01576,0.10084 -0.04728,0.13747 -0.03153,0.0366 -0.07127,0.0549 -0.119213,0.0549 z" />
      <path
         inkscape:connector-curvature="0"
         id="path3806"
         style="font-style:normal;font-variant:normal;font-weight:normal;font-stretch:normal;font-size:28px;line-height:125%;font-family:'Varela Round';-inkscape-font-specification:'Varela Round';letter-spacing:0px;word-spacing:0px;fill:#737373;fill-opacity:1;stroke:#737373;stroke-width:0.0324283;stroke-miterlimit:4;stroke-dasharray:none;stroke-opacity:1"
         d="m 53.671426,331.06755 c 0.07944,0 0.136404,-0.007 0.170901,-0.0206 0.03449,-0.0137 0.072,-0.0206 0.112492,-0.0206 0.04049,0 0.07723,0.0153 0.110223,0.0458 0.03299,0.0306 0.04949,0.0764 0.04949,0.13747 0,0.0611 -0.03001,0.10536 -0.09005,0.13285 -0.128933,0.0612 -0.239137,0.0918 -0.330602,0.0918 -0.09146,0 -0.17467,-0.004 -0.249617,-0.0138 -0.07496,-0.009 -0.146922,-0.0352 -0.215926,-0.0779 -0.164903,-0.0977 -0.247349,-0.26878 -0.247349,-0.51323 v -1.42052 h -0.31942 c -0.05692,0 -0.08537,-0.029 -0.08537,-0.087 0,-0.0275 0.01349,-0.0535 0.04049,-0.0779 l 0.61166,-0.60958 c 0.027,-0.0273 0.05248,-0.0411 0.07647,-0.0411 0.02397,0 0.04422,0.009 0.06074,0.0274 0.01651,0.0184 0.02478,0.0397 0.02478,0.0641 v 0.36653 h 0.508291 c 0.05098,0 0.09295,0.0168 0.125942,0.0504 0.03299,0.0337 0.04949,0.0764 0.04949,0.12831 0,0.0519 -0.0165,0.0946 -0.04949,0.1283 -0.03299,0.0336 -0.07496,0.0505 -0.125942,0.0505 h -0.508291 v 1.38388 c 0,0.11607 0.0345,0.19551 0.103492,0.2383 0.03898,0.0245 0.09819,0.0366 0.177622,0.0366 z" />
      <path
         inkscape:connector-curvature="0"
         id="path3808"
         style="font-style:normal;font-variant:normal;font-weight:normal;font-stretch:normal;font-size:28px;line-height:125%;font-family:'Varela Round';-inkscape-font-specification:'Varela Round';letter-spacing:0px;word-spacing:0px;fill:#737373;fill-opacity:1;stroke:#737373;stroke-width:0.0324283;stroke-miterlimit:4;stroke-dasharray:none;stroke-opacity:1"
         d="m 57.243924,329.15212 c 0.02407,-0.0825 0.08853,-0.12376 0.193409,-0.12376 0.05096,0 0.09594,0.0198 0.134934,0.0596 0.03898,0.0397 0.05847,0.0802 0.05848,0.12145 -10e-6,0.0413 -0.0045,0.0757 -0.01345,0.10311 l -0.638705,1.90635 c -0.01803,0.0519 -0.05102,0.097 -0.09897,0.13515 -0.04795,0.0382 -0.101899,0.0573 -0.161835,0.0573 -0.06004,0 -0.11403,-0.0191 -0.161979,-0.0573 -0.04795,-0.0382 -0.08244,-0.0847 -0.103493,-0.13977 l -0.476725,-1.51674 -0.476871,1.51674 c -0.02095,0.055 -0.05543,0.10156 -0.103426,0.13977 -0.04799,0.0382 -0.101961,0.0573 -0.161902,0.0573 -0.05994,0 -0.113914,-0.0191 -0.161911,-0.0573 -0.04799,-0.0382 -0.08097,-0.0832 -0.0989,-0.13515 l -0.638705,-1.90635 c -0.0091,-0.0274 -0.01358,-0.0619 -0.01358,-0.10311 0,-0.0413 0.01949,-0.0817 0.05848,-0.12145 0.03898,-0.0397 0.08395,-0.0596 0.134932,-0.0596 0.104964,0 0.16943,0.0413 0.19341,0.12376 l 0.52627,1.76426 0.521752,-1.723 c 0.01501,-0.0488 0.04276,-0.0886 0.08325,-0.11915 0.0405,-0.0306 0.08622,-0.0458 0.137202,-0.0458 0.05096,0 0.0967,0.0153 0.137192,0.0458 0.0405,0.0306 0.0682,0.0703 0.08311,0.11915 l 0.521887,1.723 z" />
      <path
         inkscape:connector-curvature="0"
         id="path3810"
         style="font-style:normal;font-variant:normal;font-weight:normal;font-stretch:normal;font-size:28px;line-height:125%;font-family:'Varela Round';-inkscape-font-specification:'Varela Round';letter-spacing:0px;word-spacing:0px;fill:#737373;fill-opacity:1;stroke:#737373;stroke-width:0.0324283;stroke-miterlimit:4;stroke-dasharray:none;stroke-opacity:1"
         d="m 58.180214,329.17044 c 0.251925,-0.10991 0.512829,-0.16486 0.782695,-0.16486 0.305824,0 0.542702,0.0946 0.710623,0.28401 0.149989,0.16502 0.224984,0.37123 0.224984,0.61867 v 1.29676 c 0,0.0581 -0.02025,0.10699 -0.06075,0.14669 -0.0405,0.0397 -0.08925,0.0596 -0.146258,0.0596 -0.05692,0 -0.104869,-0.0198 -0.143856,-0.0596 -0.03898,-0.0397 -0.05847,-0.0885 -0.05847,-0.14669 v -0.11915 c -0.081,0.0856 -0.189708,0.16505 -0.32615,0.23837 -0.136442,0.0733 -0.309622,0.10999 -0.51955,0.10999 -0.206909,0 -0.37931,-0.0611 -0.517223,-0.18335 -0.143943,-0.12827 -0.215918,-0.29632 -0.215918,-0.50412 0,-0.22599 0.08396,-0.40317 0.251887,-0.53154 0.182929,-0.1405 0.443824,-0.21075 0.782695,-0.21075 h 0.544259 v -0.0366 c 0,-0.20473 -0.04949,-0.35061 -0.148461,-0.43764 -0.09897,-0.087 -0.250395,-0.13054 -0.454275,-0.13054 -0.173969,0 -0.373369,0.0366 -0.598208,0.10992 -0.02398,0.006 -0.05098,0.009 -0.08099,0.009 -0.03001,0 -0.06152,-0.016 -0.09451,-0.0481 -0.03299,-0.0321 -0.04949,-0.0817 -0.04949,-0.14894 0,-0.0672 0.03898,-0.11765 0.116953,-0.15131 z m 0.139461,1.53058 c 0,0.24436 0.158913,0.36653 0.476727,0.36653 0.141018,0 0.27225,-0.0351 0.393683,-0.10536 0.121434,-0.0703 0.221128,-0.14966 0.299105,-0.23823 v -0.38499 h -0.490322 c -0.21285,0 -0.379262,0.0276 -0.499234,0.0825 -0.119972,0.055 -0.179959,0.14819 -0.179959,0.27954 z" />
      <path
         inkscape:connector-curvature="0"
         id="path3812"
         style="font-style:normal;font-variant:normal;font-weight:normal;font-stretch:normal;font-size:28px;line-height:125%;font-family:'Varela Round';-inkscape-font-specification:'Varela Round';letter-spacing:0px;word-spacing:0px;fill:#737373;fill-opacity:1;stroke:#737373;stroke-width:0.0324283;stroke-miterlimit:4;stroke-dasharray:none;stroke-opacity:1"
         d="m 60.999111,329.43629 c 0.209842,-0.28715 0.4452,-0.43071 0.706104,-0.43071 h 0.02251 c 0.05701,0 0.104252,0.0198 0.14173,0.0596 0.03747,0.0397 0.05621,0.0894 0.05621,0.14894 0,0.0596 -0.01949,0.1069 -0.05848,0.14201 -0.03898,0.0351 -0.08849,0.0526 -0.148518,0.0526 h -0.02238 c -0.149989,0 -0.284192,0.0375 -0.402606,0.11231 -0.118415,0.0748 -0.21661,0.17186 -0.294576,0.29101 v 1.39297 c 0,0.0581 -0.02025,0.10699 -0.06074,0.14669 -0.0405,0.0397 -0.08924,0.0596 -0.146258,0.0596 -0.05692,0 -0.104868,-0.0198 -0.143856,-0.0596 -0.03899,-0.0397 -0.05848,-0.0885 -0.05848,-0.14669 v -1.96578 c 0,-0.0581 0.01949,-0.10774 0.05848,-0.14899 0.03899,-0.0413 0.08693,-0.0619 0.143856,-0.0619 0.05701,0 0.105761,0.0206 0.146258,0.0619 0.04049,0.0413 0.06074,0.0909 0.06074,0.14899 z" />
      <path
         inkscape:connector-curvature="0"
         id="path3814"
         style="font-style:normal;font-variant:normal;font-weight:normal;font-stretch:normal;font-size:28px;line-height:125%;font-family:'Varela Round';-inkscape-font-specification:'Varela Round';letter-spacing:0px;word-spacing:0px;fill:#737373;fill-opacity:1;stroke:#737373;stroke-width:0.0324283;stroke-miterlimit:4;stroke-dasharray:none;stroke-opacity:1"
         d="m 62.608009,330.36652 c 0.02398,0.20772 0.100433,0.37266 0.229377,0.49484 0.128933,0.12217 0.308872,0.18326 0.539799,0.18326 0.230926,0 0.424355,-0.0397 0.580295,-0.11915 0.05399,-0.0275 0.100455,-0.0411 0.139395,-0.0411 0.03893,0 0.07641,0.0168 0.112415,0.0504 0.03601,0.0335 0.05401,0.0717 0.05401,0.11454 0,0.0795 -0.03224,0.13672 -0.09671,0.17186 -0.06446,0.0352 -0.122193,0.0649 -0.173161,0.0894 -0.05098,0.0245 -0.106473,0.0458 -0.166507,0.0642 -0.134885,0.0397 -0.290769,0.0596 -0.46766,0.0596 -0.368888,0 -0.655271,-0.1054 -0.859151,-0.31618 -0.203889,-0.2108 -0.305835,-0.5102 -0.305835,-0.89822 0,-0.336 0.08543,-0.61549 0.256281,-0.8385 0.191987,-0.25051 0.464871,-0.37575 0.818654,-0.37575 0.335842,0 0.601226,0.11607 0.796145,0.3482 0.182931,0.21694 0.274395,0.48577 0.274395,0.80648 0,0.0581 -0.01874,0.10698 -0.05621,0.14669 -0.03748,0.0397 -0.0877,0.0596 -0.150652,0.0596 z m 0.661212,-1.00812 c -0.266847,0 -0.461766,0.12063 -0.584747,0.3619 -0.04494,0.0856 -0.07042,0.18796 -0.07647,0.3071 h 1.326955 c -0.01198,-0.21694 -0.08996,-0.38801 -0.233897,-0.51322 -0.119972,-0.10386 -0.263924,-0.15578 -0.431845,-0.15578 z" />
    </g>
  </g>
</svg>
